<svg width="14" height="13" viewBox="0 0 14 13" fill="none" xmlns="http://www.w3.org/2000/svg">
<path d="M0.481176 2.40958H7.767C7.98202 3.23847 8.7288 3.85533 9.62351 3.85533C10.5182 3.85533 11.2647 3.23847 11.48 2.40958H12.9917C13.2579 2.40958 13.4729 2.19368 13.4729 1.92766C13.4729 1.66165 13.2579 1.44575 12.9917 1.44575H11.48C11.2647 0.616852 10.5179 0 9.62351 0C8.72907 0 7.98229 0.616852 7.767 1.44575H0.481176C0.215017 1.44575 0 1.66165 0 1.92766C0 2.19368 0.215017 2.40958 0.481176 2.40958ZM9.62351 0.963832C10.1542 0.963832 10.5859 1.39618 10.5859 1.92766C10.5859 2.45915 10.1542 2.89149 9.62351 2.89149C9.09284 2.89149 8.66116 2.45915 8.66116 1.92766C8.66116 1.39618 9.09284 0.963832 9.62351 0.963832Z" fill="white"/>
<path d="M12.9917 5.78168H5.70592C5.4909 4.95279 4.74412 4.33594 3.8494 4.33594C2.95469 4.33594 2.20818 4.95279 1.99289 5.78168H0.481176C0.215292 5.78168 0 5.99758 0 6.2636C0 6.52962 0.215017 6.74552 0.481176 6.74552H1.99289C2.20791 7.57441 2.95469 8.19126 3.8494 8.19126C4.74412 8.19126 5.49063 7.57441 5.70592 6.74552H12.9917C13.2579 6.74552 13.4729 6.52962 13.4729 6.2636C13.4729 5.99758 13.2579 5.78168 12.9917 5.78168ZM3.8494 7.22743C3.31874 7.22743 2.88705 6.79509 2.88705 6.2636C2.88705 5.73212 3.31874 5.29977 3.8494 5.29977C4.38007 5.29977 4.81176 5.73212 4.81176 6.2636C4.81176 6.79509 4.38007 7.22743 3.8494 7.22743Z" fill="white"/>
<path d="M12.9917 10.1194H11.48C11.265 9.29053 10.5182 8.67368 9.62351 8.67368C8.7288 8.67368 7.98229 9.29053 7.767 10.1194H0.481176C0.215292 10.1194 0 10.3353 0 10.6013C0 10.8674 0.215017 11.0833 0.481176 11.0833H7.767C7.98201 11.9121 8.7288 12.529 9.62351 12.529C10.5182 12.529 11.2647 11.9121 11.48 11.0833H12.9917C13.2579 11.0833 13.4729 10.8674 13.4729 10.6013C13.4729 10.3353 13.2579 10.1194 12.9917 10.1194ZM9.62351 11.5652C9.09284 11.5652 8.66116 11.1328 8.66116 10.6013C8.66116 10.0699 9.09284 9.63751 9.62351 9.63751C10.1542 9.63751 10.5859 10.0699 10.5859 10.6013C10.5859 11.1328 10.1542 11.5652 9.62351 11.5652Z" fill="white"/>
</svg>
