<svg width="39" height="12" viewBox="0 0 39 12" fill="none" xmlns="http://www.w3.org/2000/svg">
<path d="M0.784394 2.52933C0.524451 2.62252 0.389268 2.90879 0.482455 3.16873L2.00103 7.40476C2.09422 7.6647 2.38049 7.79988 2.64043 7.7067C2.90038 7.61351 3.03556 7.32724 2.94237 7.0673L1.59253 3.30194L5.35788 1.95209C5.61783 1.85891 5.75301 1.57264 5.65982 1.31269C5.56663 1.05275 5.28037 0.917567 5.02042 1.01075L0.784394 2.52933ZM0.739622 3.45212C12.6597 9.08105 25.7719 12 38.9531 12L38.9531 11C25.9185 11 12.9522 8.11329 1.16663 2.54788L0.739622 3.45212Z" fill="black"/>
</svg>
