<svg width="25" height="36" viewBox="0 0 25 36" fill="none" xmlns="http://www.w3.org/2000/svg">
<path d="M13.1132 35.7297C15.6256 33.0023 25 22.182 25 12.5727C25 9.2382 23.683 6.04029 21.3388 3.68245C18.9946 1.32462 15.8152 0 12.5 0C9.18479 0 6.00537 1.32462 3.66116 3.68245C1.31696 6.04029 0 9.2382 0 12.5727C0 22.182 9.3744 33.0023 11.8868 35.7297C11.9649 35.8149 12.0597 35.8829 12.1652 35.9294C12.2708 35.976 12.3848 36 12.5 36C12.6152 36 12.7292 35.976 12.8348 35.9294C12.9403 35.8829 13.0351 35.8149 13.1132 35.7297ZM5.98508 12.5727C5.98507 11.2767 6.36716 10.0097 7.08302 8.93213C7.79889 7.85452 8.81638 7.01463 10.0068 6.51865C11.1973 6.02268 12.5072 5.89291 13.771 6.14574C15.0347 6.39858 16.1956 7.02267 17.1067 7.9391C18.0179 8.85552 18.6384 10.0231 18.8897 11.2942C19.1411 12.5654 19.0121 13.8829 18.519 15.0803C18.0259 16.2776 17.1909 17.3011 16.1195 18.0211C15.0481 18.7411 13.7885 19.1254 12.5 19.1254C10.7721 19.1254 9.11505 18.4351 7.89327 17.2062C6.67149 15.9773 5.98509 14.3106 5.98508 12.5727Z" fill="white"/>
</svg>
