<svg width="11" height="15" viewBox="0 0 11 15" fill="none" xmlns="http://www.w3.org/2000/svg">
<path d="M5.5 0C2.46263 0 0 2.46263 0 5.5C0 6.69602 0.392104 7.7935 1.04385 8.69229C1.05554 8.71383 1.05738 8.7379 1.07067 8.75852L4.73733 14.2585C4.90738 14.5136 5.19383 14.6667 5.5 14.6667C5.80617 14.6667 6.09263 14.5136 6.26267 14.2585L9.92933 8.75852C9.94285 8.7379 9.94446 8.71383 9.95615 8.69229C10.6079 7.7935 11 6.69602 11 5.5C11 2.46263 8.53738 0 5.5 0ZM5.5 7.33333C4.48754 7.33333 3.66667 6.51246 3.66667 5.5C3.66667 4.48754 4.48754 3.66667 5.5 3.66667C6.51246 3.66667 7.33333 4.48754 7.33333 5.5C7.33333 6.51246 6.51246 7.33333 5.5 7.33333Z" fill="#E53232"/>
</svg>
