<svg width="46" height="45" viewBox="0 0 46 45" fill="none" xmlns="http://www.w3.org/2000/svg">
<path d="M44.1678 17.6141C43.6997 16.9908 43.3133 16.3101 43.018 15.5885C42.82 14.7945 42.7243 13.9784 42.7332 13.16C42.8256 11.5497 42.4337 9.94862 41.6082 8.56343C40.5404 7.34294 39.1313 6.47133 37.5633 6.06135C36.792 5.82229 36.0547 5.48462 35.3698 5.05668C34.7621 4.54214 34.2227 3.95174 33.765 3.29993C32.8872 1.91965 31.6127 0.83757 30.1091 0.195945C28.5549 -0.152232 26.9324 -0.030002 25.4477 0.547103C24.6561 0.814121 23.8334 0.977811 23 1.03412C22.1665 0.977798 21.3438 0.814096 20.5522 0.547065C19.0685 -0.0326135 17.4455 -0.154904 15.8918 0.195906C14.3875 0.836876 13.1126 1.91908 12.235 3.29989C11.7772 3.95144 11.2379 4.54152 10.6302 5.05569C9.94487 5.48411 9.20732 5.82242 8.43571 6.06227C6.86814 6.47158 5.45958 7.34297 4.39273 8.56343C3.56715 9.94788 3.17528 11.5484 3.26777 13.1581C3.27643 13.9768 3.18039 14.7932 2.98198 15.5875C2.68692 16.3095 2.30049 16.9906 1.83217 17.6141C0.781103 18.8886 0.142105 20.4531 0 22.0997C0.14236 23.7463 0.781328 25.3106 1.83217 26.5853C2.30004 27.2084 2.68644 27.8888 2.98198 28.61C3.17995 29.404 3.27571 30.2201 3.26692 31.0384C3.17408 32.6488 3.56595 34.25 4.39187 35.635C5.45974 36.8564 6.86957 37.7285 8.43851 38.1381C9.20882 38.3781 9.94532 38.7158 10.6301 39.1428C11.2378 39.6573 11.7771 40.2477 12.2349 40.8995C13.112 42.2799 14.3867 43.3616 15.8907 44.0015C17.4448 44.3514 19.0677 44.2295 20.5521 43.6513C21.344 43.3855 22.1666 43.2222 22.9999 43.1653C23.8332 43.2222 24.6558 43.3855 25.4477 43.6513C26.4639 43.9871 27.5212 44.1822 28.5903 44.2312C29.105 44.2354 29.6172 44.1586 30.1081 44.0034C31.6117 43.3615 32.8864 42.2795 33.7649 40.8995C34.2226 40.2476 34.762 39.6572 35.3697 39.1427C36.0551 38.7156 36.7922 38.3779 37.5632 38.138C39.1308 37.7282 40.5395 36.8569 41.6071 35.6369C42.4326 34.2524 42.8245 32.6519 42.7321 31.0422C42.7234 30.2232 42.8195 29.4064 43.0179 28.6118C43.3134 27.8898 43.7001 27.2088 44.1687 26.5853C45.2191 25.3104 45.8578 23.7461 46 22.0997C45.8579 20.4531 45.2189 18.8886 44.1678 17.6141ZM41.7343 24.9405C41.1055 25.7866 40.5975 26.7164 40.2251 27.7029C39.9354 28.7523 39.7919 29.8368 39.7989 30.9255C39.8724 31.9517 39.6773 32.9793 39.233 33.907C38.4834 34.6244 37.5585 35.132 36.5511 35.3786C35.5219 35.7042 34.5428 36.1711 33.6417 36.766C32.8075 37.4341 32.0705 38.2154 31.452 39.0873C30.9031 39.9816 30.1261 40.7134 29.2011 41.2076C28.199 41.3352 27.181 41.2028 26.2449 40.8229C25.1959 40.4752 24.1039 40.2743 23 40.2259C21.896 40.2744 20.8041 40.4753 19.7551 40.823C18.8177 41.2008 17.7996 41.3332 16.7969 41.2076C15.8733 40.713 15.0973 39.982 14.548 39.0892C13.9299 38.216 13.1925 37.434 12.3573 36.766C11.457 36.171 10.4785 35.704 9.44982 35.3786C8.44147 35.1318 7.51581 34.6236 6.76596 33.905C6.3214 32.9774 6.12669 31.9497 6.20114 30.9236C6.20759 29.8355 6.06415 28.7517 5.77487 27.7029C5.40312 26.7164 4.89512 25.7869 4.26567 24.9415C3.57568 24.1309 3.11643 23.1493 2.93617 22.0997C3.11647 21.0504 3.57572 20.0691 4.26567 19.2589C4.89474 18.4129 5.40271 17.4831 5.77487 16.4965C6.06468 15.4471 6.20813 14.3626 6.20114 13.2739C6.12751 12.248 6.32254 11.2207 6.76696 10.2934C7.51614 9.57629 8.44031 9.06881 9.44698 8.8217C10.4772 8.49621 11.457 8.02859 12.3583 7.43235C13.1925 6.76396 13.9294 5.98239 14.548 5.11022C15.0969 4.2164 15.8738 3.48516 16.7988 2.99179C17.8008 2.86244 18.8193 2.99496 19.755 3.37644C20.8039 3.72459 21.896 3.92553 23 3.9735C24.104 3.92552 25.196 3.72459 26.2449 3.37644C27.1805 2.99348 28.1997 2.86092 29.2021 2.99179C30.1266 3.48549 30.9031 4.21667 31.452 5.11022C32.0705 5.98273 32.8075 6.76465 33.6417 7.43341C34.5431 8.02859 35.5225 8.49582 36.5521 8.82176C37.5594 9.06851 38.4843 9.57602 39.234 10.2934C39.6785 11.221 39.8732 12.2487 39.7988 13.2748C39.7923 14.3632 39.9357 15.4473 40.2251 16.4965C40.5972 17.4831 41.1052 18.4129 41.7343 19.2589C42.4242 20.0691 42.8835 21.0504 43.0638 22.0997C42.8835 23.149 42.4243 24.1303 41.7343 24.9405Z" fill="#E53232"/>
<path d="M32.8446 12.245C32.7084 12.1085 32.5465 12.0002 32.3684 11.9264C32.1903 11.8525 31.9994 11.8145 31.8067 11.8145C31.6139 11.8145 31.423 11.8525 31.2449 11.9264C31.0668 12.0002 30.905 12.1085 30.7687 12.245L13.1516 29.8813C12.8763 30.1569 12.7217 30.5307 12.7217 30.9204C12.7217 31.3102 12.8763 31.684 13.1516 31.9595C13.4269 32.2351 13.8003 32.39 14.1896 32.39C14.5789 32.39 14.9523 32.2351 15.2276 31.9595L32.8446 14.3233C32.981 14.1868 33.0892 14.0248 33.163 13.8465C33.2368 13.6682 33.2747 13.4771 33.2747 13.2841C33.2747 13.0911 33.2368 12.9 33.163 12.7217C33.0892 12.5434 32.981 12.3814 32.8446 12.245Z" fill="#E53232"/>
<path d="M19.5744 14.2616C19.5744 13.3896 19.3161 12.5371 18.8321 11.8121C18.3482 11.087 17.6603 10.5219 16.8556 10.1882C16.0508 9.85445 15.1652 9.76714 14.3109 9.93726C13.4566 10.1074 12.6718 10.5273 12.0559 11.1439C11.4399 11.7605 11.0204 12.5462 10.8505 13.4014C10.6806 14.2567 10.7678 15.1432 11.1011 15.9489C11.4345 16.7545 11.999 17.4432 12.7233 17.9276C13.4475 18.4121 14.2991 18.6707 15.1701 18.6707C16.3378 18.6694 17.4573 18.2045 18.283 17.3779C19.1087 16.5513 19.5731 15.4306 19.5744 14.2616ZM13.702 14.2616C13.702 13.9709 13.7881 13.6868 13.9495 13.4451C14.1108 13.2034 14.3401 13.015 14.6083 12.9038C14.8766 12.7926 15.1718 12.7635 15.4565 12.8202C15.7413 12.8769 16.0029 13.0168 16.2082 13.2224C16.4135 13.4279 16.5534 13.6898 16.61 13.9749C16.6667 14.26 16.6376 14.5555 16.5265 14.824C16.4154 15.0926 16.2272 15.3221 15.9858 15.4836C15.7443 15.6451 15.4605 15.7313 15.1701 15.7313C14.7809 15.7309 14.4077 15.5759 14.1325 15.3004C13.8573 15.0248 13.7025 14.6513 13.702 14.2616Z" fill="#E53232"/>
<path d="M30.8298 25.5293C29.9587 25.5293 29.1072 25.7879 28.3829 26.2724C27.6586 26.7568 27.0941 27.4454 26.7608 28.2511C26.4274 29.0567 26.3402 29.9433 26.5102 30.7985C26.6801 31.6538 27.0996 32.4394 27.7155 33.0561C28.3315 33.6727 29.1162 34.0926 29.9706 34.2627C30.8249 34.4329 31.7105 34.3455 32.5152 34.0118C33.32 33.6781 34.0079 33.113 34.4918 32.3879C34.9758 31.6629 35.2341 30.8104 35.2341 29.9384C35.2326 28.7695 34.7681 27.6488 33.9425 26.8223C33.1168 25.9957 31.9974 25.5307 30.8298 25.5293ZM30.8298 31.4081C30.5394 31.4081 30.2556 31.3219 30.0142 31.1604C29.7727 30.9989 29.5846 30.7694 29.4735 30.5008C29.3623 30.2322 29.3333 29.9367 29.3899 29.6516C29.4466 29.3666 29.5864 29.1047 29.7917 28.8991C29.997 28.6936 30.2586 28.5536 30.5434 28.4969C30.8282 28.4402 31.1234 28.4693 31.3916 28.5806C31.6599 28.6918 31.8892 28.8802 32.0505 29.1219C32.2118 29.3635 32.2979 29.6477 32.2979 29.9384C32.2973 30.328 32.1424 30.7015 31.8672 30.977C31.5921 31.2524 31.219 31.4075 30.8298 31.4081Z" fill="#E53232"/>
</svg>
