<svg width="13" height="14" viewBox="0 0 13 14" fill="none" xmlns="http://www.w3.org/2000/svg">
<path d="M12.9308 11.0369C12.3272 9.67984 11.2976 8.79433 9.8268 8.3992C9.60589 8.33985 9.37111 8.39878 9.19476 8.55396L7.97326 9.62883C7.73473 9.83871 7.39767 9.86571 7.13552 9.69158C5.8434 8.83318 4.79793 7.7073 4.00087 6.31582C3.83918 6.03351 3.86425 5.6705 4.05914 5.41364L5.05724 4.09819C5.20133 3.90829 5.25606 3.65555 5.20095 3.41752C4.83404 1.83365 4.01178 0.724937 2.75163 0.0747394C2.54831 -0.0301521 2.30845 -0.024278 2.10963 0.0900917C1.47597 0.454519 0.869665 0.866979 0.295324 1.33064C0.0753627 1.50817 -0.0356284 1.80181 0.0101985 2.09373C0.423129 4.72733 1.74444 7.49684 3.89164 9.80906C6.03891 12.1215 8.6105 13.5443 11.0559 13.9891C11.3269 14.0383 11.5995 13.9188 11.7645 13.682C12.1951 13.0635 12.578 12.4105 12.9164 11.7281C13.0225 11.5139 13.028 11.2556 12.9306 11.0367L12.9308 11.0369Z" fill="#E53232"/>
</svg>
