<svg width="39" height="12" viewBox="0 0 39 12" fill="none" xmlns="http://www.w3.org/2000/svg">
<path d="M38.1687 2.52933C38.4287 2.62252 38.5639 2.90879 38.4707 3.16873L36.9521 7.40476C36.8589 7.6647 36.5726 7.79988 36.3127 7.7067C36.0527 7.61351 35.9176 7.32724 36.0108 7.0673L37.3606 3.30194L33.5952 1.95209C33.3353 1.85891 33.2001 1.57264 33.2933 1.31269C33.3865 1.05275 33.6728 0.917567 33.9327 1.01075L38.1687 2.52933ZM38.2135 3.45212C26.2934 9.08105 13.1812 12 -1.75367e-06 12L5.87564e-07 11C13.0346 11 26.0009 8.11329 37.7865 2.54788L38.2135 3.45212Z" fill="black"/>
</svg>
