<svg width="17" height="17" viewBox="0 0 17 17" fill="none" xmlns="http://www.w3.org/2000/svg">
<path d="M16.7937 15.8492L11.1477 10.4887C12.0492 9.34573 12.5412 7.91891 12.5412 6.44736C12.5383 4.73832 11.8768 3.10011 10.7014 1.89163C9.52607 0.683156 7.93278 0.00293903 6.2706 0C2.81096 0 0 2.8902 0 6.44736C0 10.0045 2.81576 12.8947 6.2706 12.8947C7.71867 12.8963 9.12204 12.3792 10.2396 11.4323L15.9143 16.8224C15.9765 16.8818 16.0494 16.928 16.1289 16.9584C16.2084 16.9888 16.293 17.0028 16.3778 16.9995C16.4626 16.9963 16.5459 16.976 16.623 16.9397C16.7001 16.9033 16.7696 16.8518 16.8273 16.7878C16.885 16.7239 16.93 16.649 16.9595 16.5672C16.9891 16.4854 17.0027 16.3985 16.9996 16.3113C16.9964 16.2242 16.9766 16.1385 16.9413 16.0592C16.906 15.9799 16.8558 15.9085 16.7937 15.8492ZM1.28775 6.44736C1.28903 5.08898 1.81441 3.78661 2.7486 2.82608C3.68279 1.86556 4.94945 1.32536 6.2706 1.32406C7.59174 1.32536 8.8584 1.86556 9.79259 2.82608C10.7268 3.78661 11.2522 5.08898 11.2534 6.44736C11.254 7.12179 11.1243 7.78962 10.8719 8.41212C10.6195 9.03461 10.2494 9.59939 9.78309 10.0737C9.77829 10.0786 9.77348 10.0786 9.76867 10.0836C9.76867 10.0836 9.76868 10.0885 9.76387 10.0885C8.8341 11.0384 7.57648 11.5712 6.26579 11.5707C4.94558 11.5677 3.68033 11.0269 2.74725 10.0665C1.81417 9.10623 1.28934 7.80479 1.28775 6.44736Z" fill="#121111"/>
</svg>
